<svg width="14" height="15" viewBox="0 0 14 15" fill="none" xmlns="http://www.w3.org/2000/svg">
<path d="M4.8125 2.48602V7.92765C4.76788 7.93946 4.71494 7.95652 4.67556 7.96834C4.46381 8.03352 4.31681 8.10177 4.21094 8.17352C4.16175 8.20531 4.11587 8.24195 4.074 8.2829C4.03988 8.31877 3.99219 8.39227 3.99219 8.39227L3.9375 8.48809V9.48602H4.375V12.986H5.25V9.48602H8.75V12.986H9.625V9.48602H10.0625V8.48809L10.0078 8.39227C10.0078 8.39227 9.95969 8.31877 9.92556 8.2829C9.88383 8.24197 9.8381 8.20533 9.78906 8.17352C9.68319 8.10177 9.53619 8.03352 9.324 7.96834C9.28463 7.95652 9.23212 7.93946 9.1875 7.92765V2.48602H8.3125V2.92352H5.6875V2.48602H4.8125ZM5.6875 3.79852H6.5625V7.74959C6.23088 7.75834 5.93338 7.76709 5.6875 7.79071V3.79852ZM7.4375 3.79852H8.3125V7.79071C8.06619 7.76665 7.76912 7.75834 7.4375 7.74959V3.79852Z" fill="black"/>
</svg>
